<?xml version="1.0" standalone="no"?>
<!DOCTYPE svg PUBLIC "-//W3C//DTD SVG 20010904//EN"
 "http://www.w3.org/TR/2001/REC-SVG-20010904/DTD/svg10.dtd">
<svg version="1.0" xmlns="http://www.w3.org/2000/svg"
 width="1000.000000pt" height="1000.000000pt" viewBox="0 0 1000.000000 1000.000000"
 preserveAspectRatio="xMidYMid meet">
<metadata>
Created by potrace 1.11, written by Peter Selinger 2001-2013
</metadata>
<g transform="translate(0.000000,1000.000000) scale(0.100000,-0.100000)"
fill="#000000" stroke="none">
<path d="M3753 8574 l-86 -86 292 -292 293 -293 -27 -17 c-63 -42 -209 -204
-280 -311 -128 -194 -215 -468 -219 -685 0 -46 -5 -80 -11 -80 -5 0 -37 10
-70 21 -53 18 -266 74 -320 85 -126 25 -235 42 -315 50 -52 5 -262 5 -285 0
-11 -2 -45 -7 -75 -10 -85 -10 -103 -14 -213 -50 -327 -107 -589 -318 -769
-617 -70 -116 -139 -304 -163 -439 -22 -127 -27 -305 -11 -430 62 -488 401
-915 869 -1096 91 -36 213 -68 307 -81 104 -15 363 -8 487 13 160 27 399 85
522 128 29 10 41 10 42 2 0 -6 2 -51 3 -101 3 -79 8 -143 22 -250 2 -16 6 -52
9 -80 4 -27 18 -111 31 -185 14 -74 28 -146 30 -160 2 -14 7 -36 10 -50 3 -14
8 -36 10 -50 3 -14 10 -43 16 -65 5 -22 12 -51 15 -65 16 -95 125 -477 190
-670 260 -774 578 -1254 900 -1355 83 -26 200 -25 283 4 208 72 404 283 589
631 211 399 429 1045 537 1595 2 11 11 54 19 95 8 41 17 92 21 114 3 21 7 46
9 55 3 15 21 138 30 206 7 50 18 208 18 243 -1 37 3 38 84 17 32 -9 72 -18 88
-21 17 -2 64 -12 105 -20 145 -29 295 -42 440 -39 80 2 152 6 160 9 8 3 33 8
55 11 142 20 344 100 484 189 343 220 571 574 627 976 12 84 10 284 -3 374
-65 450 -345 835 -753 1036 -141 70 -299 116 -460 135 -61 7 -230 7 -300 0
-111 -11 -137 -15 -250 -36 -90 -17 -102 -19 -170 -35 -120 -29 -110 -31 -112
28 0 29 -2 58 -3 63 -23 151 -31 187 -67 290 -45 132 -143 310 -225 410 -40
49 -131 141 -180 185 l-46 40 286 286 c158 158 287 289 287 293 0 8 -163 171
-172 171 -3 0 -144 -138 -312 -306 l-305 -305 -82 36 c-181 80 -357 113 -569
109 -80 -1 -154 -4 -165 -7 -11 -2 -41 -8 -68 -11 -61 -9 -236 -66 -310 -101
l-59 -28 -306 306 c-169 169 -311 307 -315 307 -5 0 -47 -39 -94 -86z m1497
-638 c164 -26 329 -90 466 -181 76 -51 264 -225 264 -245 0 -5 7 -15 15 -24
29 -29 103 -163 138 -252 44 -110 67 -219 74 -344 l5 -95 -124 -43 c-424 -150
-812 -364 -1031 -571 -27 -25 -53 -48 -58 -49 -5 -2 -42 29 -82 68 -89 90
-229 196 -367 279 -114 69 -382 202 -497 246 -57 22 -73 33 -74 49 -12 185 30
386 118 559 103 204 292 392 500 496 61 31 195 79 242 88 14 2 27 6 30 8 4 2
38 6 76 10 39 4 71 8 72 9 6 5 192 -2 233 -8z m-2180 -1231 c264 -38 594 -134
850 -245 85 -36 269 -127 317 -156 17 -10 57 -34 90 -53 90 -52 230 -162 311
-242 92 -92 148 -176 202 -304 48 -114 50 -101 -25 -260 -62 -132 -129 -215
-285 -350 -92 -79 -320 -218 -500 -303 -226 -108 -618 -237 -804 -266 -21 -4
-48 -8 -60 -11 -118 -26 -326 -37 -442 -23 -254 30 -476 139 -660 323 -549
550 -384 1475 321 1801 85 39 224 81 310 93 66 9 303 7 375 -4z m4327 -14
c392 -98 689 -371 812 -746 29 -88 34 -112 46 -205 60 -458 -179 -913 -593
-1128 -234 -122 -442 -150 -782 -108 -25 4 -54 8 -65 10 -11 3 -65 14 -120 25
-103 21 -253 59 -267 67 -4 3 -63 25 -131 49 -191 67 -510 213 -567 259 -8 7
-37 25 -65 41 -152 86 -374 280 -453 395 -74 109 -84 143 -80 267 l3 109 50
83 c62 103 187 233 315 328 98 72 206 143 217 143 3 0 14 6 22 14 24 22 270
142 395 193 270 111 536 185 781 217 145 19 379 13 482 -13z m-1191 -2456 c-4
-60 -9 -126 -11 -145 -7 -50 -26 -181 -31 -205 -2 -10 -6 -37 -9 -60 -3 -22
-8 -47 -10 -55 -4 -13 -128 -15 -1047 -13 -574 0 -1046 2 -1049 2 -6 1 -34
158 -45 248 -3 21 -7 49 -9 63 -8 42 -19 227 -16 260 1 14 118 16 1117 16
l1116 0 -6 -111z m-168 -914 c7 -1 10 -5 7 -11 -3 -5 -17 -54 -31 -107 -22
-85 -49 -176 -123 -413 l-17 -55 -779 0 -780 0 -23 70 c-36 107 -109 352 -127
425 -9 36 -18 72 -20 80 -4 13 104 15 938 14 518 -1 948 -2 955 -3z m-338
-1025 c0 -11 -145 -285 -182 -344 -153 -246 -318 -380 -447 -365 -127 16 -301
183 -434 418 -37 64 -147 282 -147 289 0 3 272 6 605 6 333 0 605 -2 605 -4z"/>
</g>
</svg>
